<?xml version="1.0" standalone="no"?>
<!DOCTYPE svg PUBLIC "-//W3C//DTD SVG 20010904//EN"
 "http://www.w3.org/TR/2001/REC-SVG-20010904/DTD/svg10.dtd">
<svg version="1.0" xmlns="http://www.w3.org/2000/svg"
 width="256.000000pt" height="256.000000pt" viewBox="0 0 256.000000 256.000000"
 preserveAspectRatio="xMidYMid meet">

<g transform="translate(0.000000,256.000000) scale(0.100000,-0.100000)"
fill="#000000" stroke="none">
<path d="M363 2449 c-45 -13 -92 -64 -105 -115 l-12 -44 -59 0 c-48 0 -62 -4
-82 -25 -25 -24 -25 -27 -25 -195 l0 -170 980 0 980 0 0 173 c0 168 -1 174
-23 195 -19 18 -35 22 -84 22 l-60 0 -7 39 c-13 82 -105 141 -190 121 -52 -11
-104 -64 -118 -117 l-10 -43 -54 0 c-44 0 -54 3 -54 17 0 30 -40 101 -67 119
-97 63 -232 10 -249 -97 l-7 -40 -55 3 c-55 3 -56 4 -63 37 -15 71 -81 124
-154 124 -73 0 -139 -53 -154 -124 -7 -33 -8 -34 -62 -37 l-56 -3 -6 36 c-15
91 -113 151 -204 124z m121 -50 c28 -22 56 -68 56 -94 0 -13 -19 -15 -130 -15
l-130 0 6 28 c11 44 23 62 57 82 43 27 107 26 141 -1z m424 7 c30 -16 62 -65
62 -93 0 -23 -2 -23 -125 -23 -123 0 -125 0 -125 23 0 28 32 77 62 93 13 8 41
13 63 13 22 0 50 -5 63 -13z m443 -9 c32 -21 63 -81 52 -99 -2 -5 -60 -8 -129
-8 -136 0 -139 2 -109 60 37 71 120 92 186 47z m444 -9 c20 -19 38 -47 41 -65
l7 -33 -127 0 -126 0 0 25 c0 58 56 104 128 105 34 0 49 -6 77 -32z"/>
<path d="M1970 1214 c-86 -37 -107 -82 -111 -244 -4 -112 -2 -125 14 -128 15
-3 17 7 17 110 0 135 17 182 76 218 49 31 123 32 161 4 60 -45 68 -65 73 -202
4 -110 7 -127 23 -130 15 -3 17 7 17 115 0 131 -14 176 -66 225 -53 49 -134
62 -204 32z"/>
</g>
</svg>
